<?xml version="1.0" standalone="no"?>
<!DOCTYPE svg PUBLIC "-//W3C//DTD SVG 20010904//EN"
 "http://www.w3.org/TR/2001/REC-SVG-20010904/DTD/svg10.dtd">
<svg version="1.0" xmlns="http://www.w3.org/2000/svg"
 width="160.000000pt" height="300.000000pt" viewBox="0 0 512.000000 512.000000"
 preserveAspectRatio="xMidYMid meet">

<g transform="translate(0.000000,512.000000) scale(0.100000,-0.100000)"
fill="#ebebe6" stroke="none">
<path d="M2325 3883 c-83 -7 -253 -35 -350 -58 -868 -203 -1575 -855 -1850
-1705 -75 -234 -117 -477 -119 -693 l-1 -138 33 -30 32 -29 2490 0 2490 0 32
29 33 30 -1 138 c-4 437 -164 936 -424 1323 -423 630 -1090 1038 -1839 1125
-113 13 -413 18 -526 8z"/>
</g>
</svg>
